<mxfile host="app.diagrams.net" modified="2023-08-23T13:23:53.614Z" agent="Mozilla/5.0 (Windows NT 10.0; Win64; x64) AppleWebKit/537.36 (KHTML, like Gecko) Chrome/116.0.0.0 Safari/537.36" version="21.6.9" etag="C6ISVZVZ-FSOF_TaFPwP" type="github">
  <diagram name="페이지-1" id="K8Z3fBN5LGoMC7DY0Gmo">
    <mxGraphModel>
      <root>
        <mxCell id="0" />
        <mxCell id="1" parent="0" />
      </root>
    </mxGraphModel>
  </diagram>
</mxfile>
